<svg width="124" height="124" viewBox="0 0 124 124" fill="none" xmlns="http://www.w3.org/2000/svg">
<g clip-path="url(#clip0_9_4)">
<path d="M74.6687 108.754C75.7114 109.123 76.8562 108.576 77.2236 107.533L105.925 26.0252C106.542 24.2738 104.646 22.7005 103.038 23.6289L56.2977 50.6146C54.4363 51.6893 52.4215 49.472 53.6691 47.7217L74.3726 18.6754C75.6549 16.8764 73.5033 14.6329 71.6522 15.8389L20.18 49.3737C19.2549 49.9764 18.9933 51.2148 19.5955 52.1403L35.7445 76.9574C36.2607 77.7507 37.2622 78.0735 38.1445 77.7311L58.9272 69.6655C61.0262 68.8509 62.6618 71.5881 60.9499 73.0506L38.0737 92.5947C36.9035 93.5945 37.2538 95.486 38.7044 96.0004L74.6687 108.754Z" fill="#F2613F"/>
</g>
<defs>
<clipPath id="clip0_9_4">
<rect width="124" height="124" fill="white"/>
</clipPath>
</defs>
</svg>
