<svg width="395" height="130" viewBox="0 0 395 130" fill="none" xmlns="http://www.w3.org/2000/svg">
<path d="M64.6687 114.753C65.7114 115.123 66.8562 114.576 67.2236 113.533L95.9249 32.0252C96.5416 30.2738 94.6464 28.7004 93.0384 29.6288L46.2977 56.6146C44.4363 57.6893 42.4215 55.472 43.6691 53.7217L64.3726 24.6754C65.6549 22.8764 63.5033 20.6328 61.6522 21.8388L10.18 55.3737C9.25493 55.9764 8.99326 57.2148 9.59547 58.1402L25.7445 82.9574C26.2607 83.7506 27.2622 84.0735 28.1445 83.7311L48.9272 75.6654C51.0262 74.8508 52.6618 77.588 50.9499 79.0506L28.0737 98.5947C26.9035 99.5944 27.2538 101.486 28.7044 102L64.6687 114.753Z" fill="#F2613F"/>
<path d="M160.667 101C152 101 145.083 99.1111 139.917 95.3333C134.806 91.5556 132 86.3056 131.5 79.5833H141.583C141.806 83.8611 143.583 87.1667 146.917 89.5C150.25 91.7778 154.917 92.9167 160.917 92.9167C166.25 92.9167 170.333 91.9722 173.167 90.0833C176 88.1944 177.417 85.3889 177.417 81.6667C177.417 78.7778 176.417 76.4167 174.417 74.5833C172.472 72.75 169.556 71.4722 165.667 70.75L152.75 68.1667C146.917 67 142.472 64.9167 139.417 61.9167C136.361 58.8611 134.833 55.0556 134.833 50.5C134.833 44.6667 137.028 40.0556 141.417 36.6667C145.806 33.2222 151.778 31.5 159.333 31.5C166.944 31.5 173.139 33.3056 177.917 36.9167C182.75 40.4722 185.528 45.4444 186.25 51.8333H176.167C174.5 43.6111 168.694 39.5 158.75 39.5C154.194 39.5 150.611 40.3889 148 42.1667C145.444 43.9444 144.167 46.4722 144.167 49.75C144.167 55.0278 147.917 58.4167 155.417 59.9167L168.917 62.5833C174.806 63.75 179.25 65.8889 182.25 69C185.25 72.0556 186.75 76.0278 186.75 80.9167C186.75 87.25 184.444 92.1944 179.833 95.75C175.222 99.25 168.833 101 160.667 101ZM210.922 100C208.255 100 206.172 99.3333 204.672 98C203.227 96.6111 202.505 94.5556 202.505 91.8333V57.1667H193.172V50H202.589V35H211.755V50H224.839V57.1667H211.839V92.6667H226.172V100H210.922ZM249.779 100.917C244.112 100.917 239.64 99.5278 236.362 96.75C233.14 93.9167 231.529 90.2222 231.529 85.6667C231.529 80.8889 233.14 77.1944 236.362 74.5833C239.584 71.9167 244.223 70.5833 250.279 70.5833H267.362V68.3333C267.362 60.6111 263.112 56.75 254.612 56.75C247.668 56.75 243.473 59.3611 242.029 64.5833H232.612C233.445 59.6389 235.806 55.8056 239.695 53.0833C243.64 50.3611 248.668 49 254.779 49C261.723 49 267.029 50.6389 270.695 53.9167C274.418 57.1944 276.279 61.9167 276.279 68.0833V90.3333H280.779V100H270.779V92.3333H267.279C265.556 95 263.195 97.1111 260.195 98.6667C257.195 100.167 253.723 100.917 249.779 100.917ZM251.029 93.4167C254.029 93.4167 256.779 92.8056 259.279 91.5833C261.779 90.3611 263.751 88.6944 265.195 86.5833C266.64 84.4722 267.362 82.1667 267.362 79.6667V77.4167H250.862C243.862 77.4167 240.362 80.0278 240.362 85.25C240.362 87.75 241.306 89.75 243.195 91.25C245.084 92.6944 247.695 93.4167 251.029 93.4167ZM311.003 101C304.058 101 298.586 99.5556 294.586 96.6667C290.586 93.7778 288.391 89.75 288.003 84.5833H297.253C297.641 87.6389 298.975 89.8889 301.253 91.3333C303.53 92.7778 306.891 93.5 311.336 93.5C319.114 93.5 323.003 91.0556 323.003 86.1667C323.003 84.1667 322.391 82.6389 321.169 81.5833C320.003 80.4722 318.003 79.6667 315.169 79.1667L304.253 77.1667C294.975 75.4444 290.336 71.0278 290.336 63.9167C290.336 59.3056 292.086 55.6667 295.586 53C299.086 50.3333 303.864 49 309.919 49C316.197 49 321.169 50.3611 324.836 53.0833C328.558 55.8056 330.669 59.6389 331.169 64.5833H322.086C321.53 61.8056 320.225 59.75 318.169 58.4167C316.169 57.0833 313.336 56.4167 309.669 56.4167C306.28 56.4167 303.641 57 301.753 58.1667C299.919 59.3333 299.003 61.0278 299.003 63.25C299.003 64.9722 299.586 66.3333 300.753 67.3333C301.975 68.2778 303.919 69 306.586 69.5L317.503 71.5833C322.391 72.4722 325.975 74.0556 328.253 76.3333C330.53 78.6111 331.669 81.6667 331.669 85.5C331.669 90.3889 329.891 94.1944 326.336 96.9167C322.78 99.6389 317.669 101 311.003 101ZM341.391 100V30H350.724V58H351.057C352.668 55.1111 354.918 52.9167 357.807 51.4167C360.696 49.8611 364.113 49.0833 368.057 49.0833C374.335 49.0833 379.307 50.9444 382.974 54.6667C386.696 58.3333 388.557 63.25 388.557 69.4167V100H379.224V71C379.224 66.5 378.002 63.0833 375.557 60.75C373.168 58.4167 369.641 57.25 364.974 57.25C360.363 57.25 356.835 58.4167 354.391 60.75C351.946 63.0833 350.724 66.5 350.724 71V100H341.391Z" fill="white"/>
</svg>
