<svg width="396" height="130" viewBox="0 0 396 130" fill="none" xmlns="http://www.w3.org/2000/svg">
<path d="M64.6687 114.753C65.7114 115.123 66.8562 114.576 67.2236 113.533L95.9249 32.0252C96.5416 30.2738 94.6464 28.7004 93.0384 29.6288L46.2977 56.6146C44.4363 57.6893 42.4215 55.472 43.6691 53.7217L64.3726 24.6754C65.6549 22.8764 63.5033 20.6328 61.6522 21.8388L10.18 55.3737C9.25494 55.9764 8.99326 57.2148 9.59547 58.1402L25.7445 82.9574C26.2607 83.7506 27.2622 84.0735 28.1445 83.7311L48.9272 75.6654C51.0262 74.8508 52.6618 77.588 50.9499 79.0506L28.0737 98.5947C26.9035 99.5944 27.2538 101.486 28.7044 102L64.6687 114.753Z" fill="#F2613F"/>
<path d="M160.917 101C152.251 101 145.334 99.1111 140.167 95.3333C135.056 91.5556 132.251 86.3056 131.751 79.5833H141.834C142.056 83.8611 143.834 87.1667 147.167 89.5C150.501 91.7778 155.167 92.9167 161.167 92.9167C166.501 92.9167 170.584 91.9722 173.417 90.0833C176.251 88.1944 177.667 85.3889 177.667 81.6667C177.667 78.7778 176.667 76.4167 174.667 74.5833C172.723 72.75 169.806 71.4722 165.917 70.75L153.001 68.1667C147.167 67 142.723 64.9167 139.667 61.9167C136.612 58.8611 135.084 55.0556 135.084 50.5C135.084 44.6667 137.278 40.0556 141.667 36.6667C146.056 33.2222 152.028 31.5 159.584 31.5C167.195 31.5 173.389 33.3056 178.167 36.9167C183.001 40.4722 185.778 45.4444 186.501 51.8333H176.417C174.751 43.6111 168.945 39.5 159.001 39.5C154.445 39.5 150.862 40.3889 148.251 42.1667C145.695 43.9444 144.417 46.4722 144.417 49.75C144.417 55.0278 148.167 58.4167 155.667 59.9167L169.167 62.5833C175.056 63.75 179.501 65.8889 182.501 69C185.501 72.0556 187.001 76.0278 187.001 80.9167C187.001 87.25 184.695 92.1944 180.084 95.75C175.473 99.25 169.084 101 160.917 101ZM211.172 100C208.506 100 206.422 99.3333 204.922 98C203.478 96.6111 202.756 94.5556 202.756 91.8333V57.1667H193.422V50H202.839V35H212.006V50H225.089V57.1667H212.089V92.6667H226.422V100H211.172ZM250.029 100.917C244.363 100.917 239.89 99.5278 236.613 96.75C233.39 93.9167 231.779 90.2222 231.779 85.6667C231.779 80.8889 233.39 77.1944 236.613 74.5833C239.835 71.9167 244.474 70.5833 250.529 70.5833H267.613V68.3333C267.613 60.6111 263.363 56.75 254.863 56.75C247.918 56.75 243.724 59.3611 242.279 64.5833H232.863C233.696 59.6389 236.057 55.8056 239.946 53.0833C243.89 50.3611 248.918 49 255.029 49C261.974 49 267.279 50.6389 270.946 53.9167C274.668 57.1944 276.529 61.9167 276.529 68.0833V90.3333H281.029V100H271.029V92.3333H267.529C265.807 95 263.446 97.1111 260.446 98.6667C257.446 100.167 253.974 100.917 250.029 100.917ZM251.279 93.4167C254.279 93.4167 257.029 92.8056 259.529 91.5833C262.029 90.3611 264.001 88.6944 265.446 86.5833C266.89 84.4722 267.613 82.1667 267.613 79.6667V77.4167H251.113C244.113 77.4167 240.613 80.0278 240.613 85.25C240.613 87.75 241.557 89.75 243.446 91.25C245.335 92.6944 247.946 93.4167 251.279 93.4167ZM314.17 101C309.114 101 304.698 99.9444 300.92 97.8333C297.142 95.6667 294.198 92.6389 292.086 88.75C290.031 84.8611 289.003 80.2778 289.003 75C289.003 69.7222 290.031 65.1389 292.086 61.25C294.142 57.3611 297.059 54.3611 300.836 52.25C304.614 50.0833 309.059 49 314.17 49C320.281 49 325.364 50.5278 329.42 53.5833C333.531 56.5833 336.225 60.9167 337.503 66.5833H328.086C327.142 63.3611 325.503 61 323.17 59.5C320.892 57.9444 317.892 57.1667 314.17 57.1667C309.225 57.1667 305.336 58.7222 302.503 61.8333C299.725 64.9444 298.336 69.3333 298.336 75C298.336 80.6111 299.725 85 302.503 88.1667C305.336 91.2778 309.225 92.8333 314.17 92.8333C321.892 92.8333 326.642 89.4167 328.42 82.5833H337.836C336.614 88.5278 333.948 93.0833 329.836 96.25C325.725 99.4167 320.503 101 314.17 101ZM346.036 100V30H355.369V72.5H355.702L379.786 50H391.202L368.286 70.6667L393.119 100H381.786L361.952 76.4167L355.369 81.75V100H346.036Z" fill="white"/>
</svg>
